<svg width="321" height="429" viewBox="0 0 321 429" fill="none" xmlns="http://www.w3.org/2000/svg">
<path d="M0 85.5C3.62687 85.5 4.5 82.2761 4.5 81C4.5 82.5 5.4 85.5 9 85.5C5.39143 85.5 4.49951 88.4263 4.49958 89.9437C4.49986 89.9627 4.5 89.9815 4.5 90C4.49972 89.9815 4.49959 89.9627 4.49958 89.9437C4.47734 88.4263 3.5555 85.5 0 85.5Z" fill="white"/>
<path d="M307 225C312.642 225 314 219.985 314 218C314 220.333 315.4 225 321 225C315.387 225 313.999 229.552 313.999 231.912C314 231.942 314 231.971 314 232C314 231.971 313.999 231.942 313.999 231.912C313.965 229.552 312.531 225 307 225Z" fill="white"/>
<path d="M192 7C197.642 7 199 1.98507 199 0C199 2.33333 200.4 7 206 7C200.387 7 198.999 11.552 198.999 13.9124C199 13.942 199 13.9712 199 14C199 13.9712 198.999 13.942 198.999 13.9124C198.965 11.552 197.531 7 192 7Z" fill="white"/>
<path d="M21 419.5C28.6567 419.5 30.5 412.694 30.5 410C30.5 413.167 32.4 419.5 40 419.5C32.3821 419.5 30.4991 425.677 30.4991 428.881C30.4997 428.921 30.5 428.961 30.5 429C30.4994 428.961 30.4991 428.921 30.4991 428.881C30.4521 425.677 28.5059 419.5 21 419.5Z" fill="white"/>
<path d="M234 318.5C236.821 318.5 237.5 315.993 237.5 315C237.5 316.167 238.2 318.5 241 318.5C238.193 318.5 237.5 320.776 237.5 321.956C237.5 321.971 237.5 321.986 237.5 322C237.5 321.986 237.5 321.971 237.5 321.956C237.482 320.776 236.765 318.5 234 318.5Z" fill="white"/>
</svg>
